<?xml version="1.0" standalone="no"?>
<!DOCTYPE svg PUBLIC "-//W3C//DTD SVG 20010904//EN"
 "http://www.w3.org/TR/2001/REC-SVG-20010904/DTD/svg10.dtd">
<svg version="1.0" xmlns="http://www.w3.org/2000/svg"
 width="1090.000000pt" height="190.000000pt" viewBox="0 0 1090.000000 190.000000"
 preserveAspectRatio="xMidYMid meet">

<g transform="translate(0.000000,190.000000) scale(0.100000,-0.100000)"
fill="#000000" stroke="none">
<path d="M788 1885 c-303 -58 -553 -246 -689 -520 -75 -153 -92 -229 -92 -415
0 -128 3 -169 21 -235 28 -101 95 -241 156 -322 l46 -63 52 21 c29 12 63 25
76 30 22 8 21 10 -29 71 -63 78 -122 193 -151 295 -32 111 -32 295 0 407 79
276 292 488 569 568 65 19 101 23 223 23 138 -1 150 -2 243 -34 154 -53 275
-135 374 -251 66 -79 146 -239 167 -337 20 -92 20 -254 0 -346 -20 -94 -100
-258 -158 -325 -25 -30 -46 -57 -46 -60 0 -7 126 -57 142 -57 13 0 87 107 126
184 110 211 135 481 66 702 -100 322 -356 565 -684 649 -110 29 -303 36 -412
15z"/>
<path d="M7900 1479 c-25 -5 -55 -11 -67 -14 l-23 -5 0 -515 0 -515 75 0 75 0
0 530 c0 292 -3 530 -7 529 -5 -1 -28 -5 -53 -10z"/>
<path d="M9125 1479 c-22 -5 -50 -11 -62 -14 l-23 -5 0 -515 0 -515 75 0 c73
0 75 1 75 25 0 14 2 25 4 25 2 0 28 -12 58 -27 49 -26 62 -28 168 -28 112 0
117 1 178 34 71 39 138 108 173 178 21 42 24 62 24 163 0 104 -3 120 -27 172
-34 74 -107 146 -183 183 -54 26 -70 29 -160 30 -103 0 -105 -1 -227 -63 -5
-2 -8 80 -8 182 0 143 -3 186 -12 185 -7 -1 -31 -5 -53 -10z m373 -434 c46
-20 108 -78 132 -126 64 -124 9 -289 -116 -350 -89 -42 -232 -22 -301 43 -22
21 -23 28 -23 194 l0 173 33 25 c19 14 51 32 73 40 53 20 156 20 202 1z"/>
<path d="M10840 1479 c-25 -5 -55 -11 -67 -14 l-23 -5 0 -515 0 -515 75 0 75
0 0 530 c0 292 -3 530 -7 529 -5 -1 -28 -5 -53 -10z"/>
<path d="M7030 1465 c-158 -36 -305 -145 -369 -277 -135 -273 -27 -589 246
-723 164 -80 383 -68 528 29 139 92 213 225 230 414 l6 72 -260 0 -261 0 0
-65 0 -65 176 0 176 0 -7 -32 c-21 -95 -101 -189 -200 -235 -51 -23 -73 -27
-145 -27 -112 1 -181 27 -258 99 -206 190 -156 525 96 643 51 24 69 27 162 27
125 -1 192 -23 264 -86 l46 -41 27 20 c16 11 41 33 56 50 l28 29 -51 46 c-121
108 -325 159 -490 122z"/>
<path d="M2781 1443 c-11 -23 -421 -1003 -421 -1009 0 -3 37 -4 82 -2 l82 3
59 148 59 147 235 -2 235 -3 58 -145 58 -145 87 -3 c52 -2 86 1 83 7 -1 5 -97
237 -213 515 l-210 506 -92 0 c-78 0 -94 -3 -102 -17z m192 -370 l85 -213
-179 0 c-98 0 -179 3 -179 7 0 21 174 433 181 426 4 -4 46 -104 92 -220z"/>
<path d="M946 1398 c-23 -38 -28 -67 -16 -102 18 -54 36 -63 54 -27 20 38 20
84 1 121 -19 36 -21 36 -39 8z"/>
<path d="M810 1234 c0 -52 63 -114 115 -114 14 0 16 6 11 32 -8 39 -31 67 -73
84 -42 18 -53 18 -53 -2z"/>
<path d="M1053 1234 c-35 -18 -56 -45 -67 -86 -5 -24 -3 -28 14 -28 25 0 72
23 89 44 7 9 17 31 21 51 9 41 -4 45 -57 19z"/>
<path d="M3746 1176 c-22 -8 -52 -24 -67 -35 -37 -27 -39 -27 -39 9 l0 30 -75
0 -75 0 0 -375 0 -375 75 0 75 0 0 274 0 274 36 32 c46 40 77 51 141 51 54 0
96 -16 126 -49 40 -44 46 -87 47 -339 l0 -243 76 0 75 0 -2 271 -1 271 35 35
c67 68 187 75 251 15 53 -50 56 -69 56 -342 l0 -250 75 0 75 0 0 268 c0 304
-5 330 -70 405 -59 67 -122 90 -229 85 -71 -3 -95 -9 -139 -33 -30 -16 -64
-41 -76 -56 l-23 -27 -35 37 c-19 20 -52 46 -74 56 -51 25 -183 31 -238 11z"/>
<path d="M4995 1184 c-56 -14 -175 -57 -180 -64 -5 -8 40 -110 49 -110 2 0 35
12 72 27 91 35 220 39 274 8 48 -28 70 -76 70 -152 l0 -62 -42 15 c-59 22
-200 29 -270 15 -72 -15 -145 -64 -176 -116 -32 -56 -28 -165 8 -219 51 -75
135 -111 255 -109 84 1 146 18 196 53 l29 21 0 -30 0 -31 76 0 75 0 -3 293
c-3 277 -4 294 -25 332 -26 49 -54 76 -113 106 -38 20 -62 24 -160 25 -63 2
-124 0 -135 -2z m239 -443 l47 -20 -3 -68 -3 -68 -60 -30 c-136 -68 -305 -18
-305 91 0 41 45 96 92 112 50 17 177 8 232 -17z"/>
<path d="M8373 1176 c-187 -61 -299 -249 -264 -443 38 -213 238 -351 457 -315
382 63 453 569 105 739 -48 24 -70 28 -156 30 -64 2 -115 -2 -142 -11z m235
-142 c65 -32 108 -84 129 -153 50 -171 -66 -335 -237 -335 -133 0 -235 97
-247 234 -18 200 180 341 355 254z"/>
<path d="M10100 1171 c-89 -25 -140 -48 -140 -62 0 -12 48 -99 54 -99 2 0 35
12 72 27 91 35 221 39 273 8 48 -29 71 -77 71 -152 l0 -62 -42 16 c-31 12 -77
17 -163 17 -114 1 -123 0 -180 -29 -33 -17 -72 -47 -90 -68 -26 -34 -30 -48
-33 -115 -4 -73 -2 -79 30 -127 38 -56 93 -89 178 -105 90 -17 206 4 271 50
l29 21 0 -30 0 -31 75 0 75 0 0 268 c0 290 -6 333 -53 395 -14 18 -49 46 -78
62 -50 27 -63 30 -169 32 -88 2 -131 -2 -180 -16z m284 -430 l47 -20 -3 -68
-3 -67 -58 -30 c-47 -24 -70 -29 -130 -30 -49 0 -82 6 -104 17 -108 57 -94
179 26 218 44 14 174 3 225 -20z"/>
<path d="M5560 1115 l0 -65 209 -2 208 -3 -208 -250 -208 -250 -1 -57 0 -58
310 0 310 0 0 60 0 60 -215 0 c-118 0 -215 2 -215 5 0 3 94 119 210 258 l210
252 0 58 0 57 -305 0 -305 0 0 -65z"/>
<path d="M427 1153 c-17 -16 -5 -65 22 -95 34 -38 43 -34 43 17 0 47 -44 100
-65 78z"/>
<path d="M1445 1135 c-18 -18 -25 -35 -25 -65 0 -46 11 -50 45 -15 18 18 25
35 25 65 0 46 -11 50 -45 15z"/>
<path d="M795 1079 c11 -50 40 -85 85 -103 57 -23 64 -21 56 16 -12 62 -51
100 -115 113 l-33 7 7 -33z"/>
<path d="M1063 1091 c-44 -21 -73 -62 -73 -106 0 -23 3 -25 28 -19 65 16 112
67 112 123 0 26 -13 26 -67 2z"/>
<path d="M556 1049 c-25 -30 -32 -61 -20 -93 5 -14 8 -14 29 0 29 19 49 66 41
99 -8 33 -19 32 -50 -6z"/>
<path d="M1310 1037 c0 -33 6 -49 23 -65 34 -32 47 -28 47 17 0 28 -7 45 -26
65 -37 36 -44 33 -44 -17z"/>
<path d="M382 992 c-10 -7 -8 -14 8 -35 23 -29 78 -44 105 -30 15 9 15 12 -7
37 -24 28 -83 44 -106 28z"/>
<path d="M1465 991 c-28 -12 -58 -48 -50 -60 15 -26 91 -5 114 31 11 17 10 22
-1 29 -16 11 -37 10 -63 0z"/>
<path d="M627 969 c-37 -22 -59 -95 -37 -129 8 -12 14 -10 38 14 31 29 45 69
35 105 -6 24 -10 25 -36 10z"/>
<path d="M1256 973 c-3 -3 -6 -24 -6 -45 0 -30 7 -46 29 -69 16 -16 34 -29 40
-29 17 0 13 83 -5 108 -17 25 -49 44 -58 35z"/>
<path d="M780 945 c0 -32 34 -96 61 -116 16 -11 45 -23 64 -26 31 -5 35 -3 35
16 0 39 -37 97 -72 113 -55 26 -88 31 -88 13z"/>
<path d="M1103 949 c-64 -13 -100 -51 -117 -123 -7 -29 -7 -29 31 -23 66 11
128 78 121 130 -3 20 -7 22 -35 16z"/>
<path d="M411 881 c-12 -7 -8 -15 17 -40 25 -26 38 -31 77 -31 39 0 46 3 43
17 -8 41 -100 77 -137 54z"/>
<path d="M1416 875 c-28 -15 -55 -42 -56 -57 0 -3 13 -9 30 -13 54 -12 146 52
109 76 -21 13 -51 11 -83 -6z"/>
<path d="M665 837 c-28 -28 -35 -43 -35 -73 0 -64 12 -70 54 -31 31 30 36 40
36 80 0 25 -5 49 -10 52 -6 4 -26 -9 -45 -28z"/>
<path d="M1195 837 c-8 -39 6 -78 36 -106 37 -34 49 -27 49 28 0 42 -5 54 -31
80 -39 39 -47 39 -54 -2z"/>
<path d="M447 764 c-22 -22 58 -84 108 -84 57 0 62 15 23 54 -30 30 -43 36
-80 36 -25 0 -48 -3 -51 -6z"/>
<path d="M1359 755 c-14 -8 -33 -25 -42 -39 -15 -22 -15 -25 -1 -30 28 -11 76
-6 103 10 32 19 54 51 46 64 -9 15 -76 11 -106 -5z"/>
<path d="M950 625 c0 -87 3 -105 15 -105 12 0 15 18 15 105 0 87 -3 105 -15
105 -12 0 -15 -18 -15 -105z"/>
<path d="M637 654 c-3 -3 3 -29 14 -56 31 -80 50 -111 60 -101 6 6 -3 39 -22
86 -30 74 -38 85 -52 71z"/>
<path d="M1252 644 c-5 -11 -21 -47 -35 -81 -20 -48 -22 -63 -12 -67 18 -6 81
142 67 156 -7 7 -14 4 -20 -8z"/>
</g>
</svg>
