<svg id="Layer_1" data-name="Layer 1" xmlns="http://www.w3.org/2000/svg" viewBox="0 0 1920 1080"><defs><style>.cls-1,.cls-3,.cls-5{fill:#141414;}.cls-2{fill:#141414;}.cls-3{font-size:106.41px;letter-spacing:0.16em;}.cls-3,.cls-5{font-family:Montserrat-Regular, Montserrat;}.cls-4{letter-spacing:0.15em;}.cls-5{font-size:56.27px;letter-spacing:0.32em;}.cls-6{letter-spacing:0.3em;}.cls-7{letter-spacing:0.29em;}.cls-8{letter-spacing:0.31em;}.cls-9{letter-spacing:0.32em;}.cls-10{letter-spacing:0.31em;}</style></defs><path class="cls-1" d="M881.81,431.84a33.75,33.75,0,0,1,12.84-12.32c8.2-4.29,16.26-3.6,19.78-3.34,21.34,1.59,42.8-1.15,64.21-1,31.82.18,43.85-1.39,48.54-2a107.71,107.71,0,0,0,40.06-13.87c8.89-5.37,13.9-10.43,15.67-17.21a22.92,22.92,0,0,0,0-11,4.75,4.75,0,0,0-2.51-2.51,4.7,4.7,0,0,0-5.65,2.06,4.4,4.4,0,0,0-.38,2.89,16.3,16.3,0,0,1,.06,3.33,20.21,20.21,0,0,1-2.44,7.45c-3.49,6.19-16.16,10.79-23.24,13.23-9.65,3.33-14.47,5-19.65,6-12.45,2.52-15.69.8-34.54,1-2.73,0-5.53.11-8.09-1.67-1.65-1.14-2.81-2.78-3.47-2.44s.6,2.95-.64,4.5c-.51.63-1.29.89-4.88,1.15a52.89,52.89,0,0,1-5.78.26c-10-.5-16.33,1-51.88-.13-6.92-.21-11.82-.43-18.23,1.54a42.71,42.71,0,0,0-13.23,6.81A43.55,43.55,0,0,0,876.67,428a3.63,3.63,0,0,0,2.09,4.4c.25.11,1.86.78,2.7,0A1.44,1.44,0,0,0,881.81,431.84Z"/><path class="cls-1" d="M678.59,725.59a643.72,643.72,0,0,0,116.67-23.3,498.42,498.42,0,0,0,81.93-32.36c42.36-21.35,61.44-42.19,70.11-47.39,2-1.21,4.91-6.12,3.85-10.14a3.46,3.46,0,0,0-1.54-2.06c-1.68-.9-.67.27-3.08,1.8-6.58,4.17-4.21,2.6-4.21,2.6-3,3.64-17.53,13.78-30,24.37-6.88,5.86-12.27,9-22.6,15.15-7.06,4.17-27.34,15.77-60.1,27.74-15.68,5.73-27.44,9.07-39.8,12.58-26.38,7.49-35.25,8.46-58.56,14.64C719.08,712.46,700.82,717.69,678.59,725.59Z"/><path class="cls-2" d="M256.56,374.31a63.35,63.35,0,0,0-2.19,30.57c.86,4.83,3.33,17.52,13.23,28.76,14.54,16.51,35.43,18.17,43.92,18.88,22.23,1.86,39.59-5.76,48.67-9.89C421.56,414.76,465,384.07,465,384.07c27-19.05,59.51-42.85,95.93-71.27Q521,518.72,481.15,724.63l19.65-.38,29.28-131.37c7.21-17.41,17.28-40.46,30.44-67,11.52-23.29,25.65-51.65,47.77-86.29a731.48,731.48,0,0,1,64-85s25.64-29.42,56.63-49.83a126.62,126.62,0,0,1,27.74-13.48c8.18-2.82,13.47-4.6,20-4.24,14.4.79,24.53,11.29,28.51,15.41,16.38,17,20.61,45.66,20,93.62a730.1,730.1,0,0,1-8.86,106.71c-7.29,44.35-16.51,77.14-23.5,101.7A1131.79,1131.79,0,0,1,751.6,723.48h23.12a779.11,779.11,0,0,0,38.9-103.64,756.52,756.52,0,0,0,25-117.11c4.48-34.78,5.09-57.13,5.91-95.28.25-11.81.39-26.59-3.08-45.46-3-16.51-6.39-33.71-19-51.11-5.72-7.89-15.57-21.1-33.39-27.23a59.62,59.62,0,0,0-22.85-3.08c-13.84.88-24,6.55-30.57,10.53C693.6,316.46,667.36,345,667.36,345c-21.44,23.34-34.73,43.16-46.49,60.86-18.6,28-33.63,56.37-62.92,112-8.26,15.68-15,28.69-19.52,37.5l50.4-273a345.61,345.61,0,0,1,14.25-57.21c7.92-23.06,15.65-37.52,20.81-46.23,0,0,6.45-10.91,29.66-33.9a15.86,15.86,0,0,1,6.94-4.24c1.09-.3,6.42-1.92,10.4.77s5.58,9.1,3.27,15.41a189,189,0,0,1-14.76,36c-6.2,11.52-12.27,19.87-18,27.74-1.62,2.22-5.69,7.77-20.29,25.43-12.51,15.11-18.76,22.67-22.09,26.19a183.17,183.17,0,0,1-39,31.08,85.6,85.6,0,0,0,31.85-13.87,84.08,84.08,0,0,0,11.81-10.27c21.3-21.77,39.93-47.45,45.72-55.48,13.41-18.6,22.55-32.1,29.53-49.05,0,0,7.17-17.39,2.83-31.34a18.62,18.62,0,0,0-4.62-8c-4.19-4.1-9.44-4.81-12.07-5.13-7.54-.93-13.83,1.56-18,3.59-18.2,8.9-30.76,26.41-31.34,27.23-26.23,37.27-37.29,75.87-39.8,85a339.47,339.47,0,0,0-9.76,49.56q-.61,3.82-1.22,7.65l-6.07.67c-7.42,6-18,14.35-30.73,24.17-24.4,18.78-42.63,32.8-68,49.51-4.77,3.14-.42.2-57.72,34.73a283,283,0,0,1-43,21.83c-11.29,4.52-17.75,6.18-22.93,7.2-9.1,1.78-21.72,4.26-36.79.38-6.54-1.69-18.15-4.68-27.73-15-11.29-12.19-12.83-27.09-13.49-33.52a67,67,0,0,1,.58-17.91,1.5,1.5,0,0,0-.12-1.42,1.37,1.37,0,0,0-1-.58A1.42,1.42,0,0,0,256.56,374.31Z"/><path class="cls-2" d="M450.72,848.68H433.38a162.28,162.28,0,0,1-24.27,41.61c-9.79,12.17-25.33,31-52.78,42a111.46,111.46,0,0,1-44.3,8.09s-32.87-1.13-62-22.34c-39-28.37-52.8-105-25-187.62L218,725a187.92,187.92,0,0,0-18.88,89.37c1,23.32,2.93,69.75,39.68,103.64,38,35,86.45,32.05,92.46,31.59C384.17,945.54,431.28,905.64,450.72,848.68Z"/><path class="cls-2" d="M513.77,848.94h5.16a58,58,0,0,0,1.52,21.57c2.78,10.45,7.84,17.35,12.07,23.12,4.74,6.46,8.42,11.47,14.9,15.66,10.3,6.67,21,6.89,27.22,6.94,16.32.13,27.94-5.71,43.15-13.36a165.08,165.08,0,0,0,38.27-26.45,161.23,161.23,0,0,0,23.37-27.23h16.18a175,175,0,0,1-15.67,19c-3.13,3.29-13.54,14-31.85,26.45-17.3,11.78-28.11,19.14-44.68,23.89-14.32,4.1-30.74,8.8-48.29,1.54-20.25-8.37-29.41-27.46-32.87-34.67-6.77-14.1-8.06-29.09-8.22-31.08C513.85,852.1,513.79,850.24,513.77,848.94Z"/><path class="cls-1" d="M964.45,726.94H981.6a66.57,66.57,0,0,1-16.32-21.31c-5.18-10.84-6-20.45-6.42-29.54-1.81-37.24,1.8-64.72,1.8-64.72,4.27-38,6.4-57,8.47-70.37,4.73-30.49,9.29-52.25,15.67-82.44,7.05-33.4,13-58.19,23.88-103.76,7.07-29.53,13.06-53.89,17.21-70.63a44.73,44.73,0,0,0,1-11.82c-.25-5.21-.4-8.33-2.83-10.78a9.77,9.77,0,0,0-9.24-2.57c-1.1.31-3.64,1.29-7.45,8.47a58,58,0,0,0-5.65,16.18c-5.72,22.5-18.41,73-29,121.23-4.53,20.58-7.61,35.87-9.25,44.17-4.08,20.67-6.7,33.92-9.24,50.6-1.08,7.09-1.9,13.16-6.94,62.66-4.69,46.14-5.12,52.08-5.39,61.13-.72,24.39-1,38.44,3.08,56.5A153.66,153.66,0,0,0,964.45,726.94Z"/><path class="cls-1" d="M1002.39,725.79a14.29,14.29,0,0,0,12.62-4.53c26.37-27.39,37.27-47.67,37.27-47.67a369.43,369.43,0,0,0,23.5-53.55c9.67,2.63,18,5,24.46,6.93,23.66,7,31,9.95,43.92,11.75a135.36,135.36,0,0,0,24.47,1.16c89.43-3.86,58.71,1.38,122.31-2.31,86.77-5,90.31-8.39,132.14-8.09,0,0,38.35-2.19,75.89,4.23a105.21,105.21,0,0,1,23.89,6.94,103.53,103.53,0,0,1,15.8,8.47h8.86l1.83-7a32.28,32.28,0,0,1,13.38-7.41c8.26-2.15,14.65.08,30.24,3.85,7.23,1.74,14.53,3.16,21.77,4.81,5.41,1.24,31.75,7.25,60.1.58,9.93-2.33,27.5-8,46.16-23.18V612c-4.37,2.65-10.65,6.26-18.49,10.06-6.2,3-11.11,5.39-17,7.19-4.78,1.47-9.85,2.46-26.32,2.95-21.72.66-32.58,1-43-1.15-4.35-.89-14.11-3.17-22-5-8.79-2.06-10.84-2.6-14.9-3.08-10.59-1.27-17.53-.1-21.57.9-7.94,1.94-10.58,4.59-11.82,6.16a15.38,15.38,0,0,0-2.82,5.91l-5.91.25a64,64,0,0,0-10.66-6.67c-10.44-5.2-19.62-6.17-27.61-6.94-21.9-2.11-32.85-3.17-38.65-3.21-35.25-.24-64.68,1.19-72,1.54-15.45.75-38.61,1.81-67.42,3-22.36.88-40.63,2-53.16,2.82-26.66,1.79-53.35,3.17-80,5.14-16.08,1.19-25.45,2-38.91,0-16.36-2.41-23.5-3.21-35.09-6-8.44-2-17.64-4.29-29.06-10-3.69-1.84-8.44-4-10.34-5.33-1.74,2-1.6,4.43-3.33,6.49-3.79,9.26-7,16.94-9.44,22.53-7.38,17.21-9.45,21.09-10.79,23.5-2.76,5-6,9.68-12.33,19.07-7.28,10.73-10.92,16.1-13.48,18.69-6.33,6.4-10.34,7.91-16.37,15.6A65.76,65.76,0,0,0,1002.39,725.79Z"/><text class="cls-3" transform="translate(500.78 821.44)">DONNA <tspan class="cls-4" x="556.5" y="0">T</tspan><tspan x="633.12" y="0">URNER</tspan></text><text class="cls-5" transform="translate(754.94 902.11)">P<tspan class="cls-6" x="58.4" y="0">S</tspan><tspan class="cls-7" x="110.17" y="0">Y</tspan><tspan x="162.21" y="0">CHO</tspan><tspan class="cls-8" x="349.64" y="0">L</tspan><tspan class="cls-9" x="399.99" y="0">OGI</tspan><tspan class="cls-10" x="561.7" y="0">S</tspan><tspan class="cls-9" x="613.75" y="0">T</tspan></text></svg>