<?xml version="1.0" standalone="no"?>
<!DOCTYPE svg PUBLIC "-//W3C//DTD SVG 20010904//EN"
 "http://www.w3.org/TR/2001/REC-SVG-20010904/DTD/svg10.dtd">
<svg version="1.0" xmlns="http://www.w3.org/2000/svg"
 width="455.000000pt" height="94.000000pt" viewBox="0 0 455.000000 94.000000"
 preserveAspectRatio="xMidYMid meet">

<g transform="translate(0.000000,94.000000) scale(0.100000,-0.100000)"
fill="#000000" stroke="none">
<path d="M265 796 c-59 -18 -93 -44 -120 -90 -45 -79 -41 -164 12 -235 31 -40
114 -81 166 -81 23 0 51 -9 69 -21 16 -12 49 -27 74 -35 l44 -13 15 36 c21 50
20 52 -26 59 l-40 7 24 26 c42 44 61 92 61 151 0 92 -58 169 -148 195 -59 18
-78 18 -131 1z m118 -97 c39 -20 57 -51 57 -102 0 -40 -5 -53 -29 -78 -25 -24
-38 -29 -79 -29 -85 0 -133 64 -111 146 17 60 102 93 162 63z"/>
<path d="M610 600 l0 -200 50 0 50 0 0 200 0 200 -50 0 -50 0 0 -200z"/>
<path d="M780 601 l0 -201 100 0 c110 0 143 10 179 56 39 50 17 141 -38 159
-18 5 -18 7 0 41 15 31 16 41 6 67 -22 54 -56 70 -157 75 l-90 4 0 -201z m154
103 c21 -8 21 -50 0 -58 -39 -15 -54 -7 -54 29 0 36 15 44 54 29z m46 -155
c17 -31 -12 -59 -62 -59 -38 0 -38 0 -38 40 l0 40 45 0 c35 0 47 -4 55 -21z"/>
<path d="M1130 600 l0 -200 188 0 187 0 19 48 c11 26 33 76 48 112 l29 65 48
-110 48 -110 56 -3 56 -3 -92 201 c-118 257 -113 256 -208 50 l-66 -145 -107
-3 -106 -3 0 151 0 150 -50 0 -50 0 0 -200z"/>
<path d="M1979 777 c-41 -28 -57 -74 -39 -116 9 -22 32 -40 90 -70 89 -47 105
-62 96 -95 -12 -48 -112 -59 -151 -16 -16 18 -19 18 -42 3 l-24 -16 27 -28
c71 -75 218 -51 245 40 18 62 -7 96 -106 146 -73 37 -80 43 -80 70 0 52 77 71
119 30 13 -13 19 -13 36 -3 26 17 26 22 -11 52 -41 35 -111 36 -160 3z"/>
<path d="M2340 778 c-127 -69 -147 -239 -38 -332 69 -59 172 -66 238 -16 22
17 23 21 11 43 l-14 26 -27 -20 c-118 -88 -273 59 -205 192 34 64 135 90 200
50 30 -18 31 -18 47 4 15 20 14 22 -19 45 -52 36 -134 39 -193 8z"/>
<path d="M2620 600 l0 -200 30 0 30 0 0 85 0 85 90 0 90 0 0 -85 0 -85 30 0
30 0 0 200 0 200 -30 0 -30 0 0 -85 0 -85 -90 0 -90 0 0 85 0 85 -30 0 -30 0
0 -200z"/>
<path d="M3090 778 c-67 -36 -105 -103 -105 -184 0 -54 5 -69 31 -106 109
-156 348 -99 371 89 8 69 -29 148 -88 189 -59 40 -146 45 -209 12z m175 -58
c59 -36 83 -127 50 -190 -52 -100 -208 -100 -260 0 -32 63 -8 156 49 191 42
26 119 25 161 -1z"/>
<path d="M3555 783 c-54 -28 -95 -75 -110 -127 -56 -189 167 -339 319 -215
114 95 96 271 -34 337 -53 26 -130 29 -175 5z m162 -63 c47 -28 66 -72 61
-138 -4 -48 -10 -60 -41 -88 -46 -43 -94 -52 -153 -29 -103 39 -123 170 -38
245 29 25 43 30 87 30 34 0 63 -7 84 -20z"/>
<path d="M3910 600 l0 -200 115 0 115 0 0 30 0 30 -90 0 -90 0 0 170 0 170
-25 0 -25 0 0 -200z"/>
<path d="M4264 781 c-38 -23 -59 -76 -45 -112 12 -32 35 -51 101 -84 70 -35
90 -53 90 -80 0 -30 -21 -46 -67 -52 -30 -4 -46 1 -75 20 -36 25 -36 25 -55 5
-17 -19 -17 -21 10 -44 71 -61 194 -48 232 26 36 69 9 113 -106 171 -48 24
-79 45 -79 55 0 54 60 78 114 46 30 -18 37 -19 53 -6 17 13 16 15 -15 44 -26
25 -41 30 -80 30 -29 0 -59 -8 -78 -19z"/>
<path d="M2087 214 c-14 -14 -7 -35 11 -32 9 2 17 10 17 17 0 16 -18 25 -28
15z"/>
<path d="M3780 181 c0 -28 -2 -29 -32 -25 -46 7 -72 -14 -72 -60 0 -40 20 -67
50 -67 10 1 34 1 52 1 l32 1 0 90 c0 72 -3 89 -15 89 -10 0 -15 -10 -15 -29z
m-19 -51 c39 -21 13 -89 -29 -75 -26 8 -33 39 -15 64 16 24 18 25 44 11z"/>
<path d="M2632 184 c-35 -24 -25 -55 26 -79 27 -12 41 -25 40 -35 -4 -17 -48
-27 -48 -11 0 6 -9 11 -20 11 -18 0 -19 -3 -10 -20 8 -15 21 -20 48 -20 44 0
62 14 62 47 0 19 -10 28 -45 43 -25 11 -45 24 -45 30 0 18 30 23 56 10 33 -18
44 -3 15 21 -28 23 -49 24 -79 3z"/>
<path d="M770 110 c0 -64 3 -80 15 -80 10 0 15 10 15 30 0 38 16 38 38 0 9
-16 25 -30 35 -30 17 0 17 1 1 30 -17 27 -17 30 -1 48 20 22 22 53 5 70 -7 7
-34 12 -60 12 l-48 0 0 -80z m85 35 c0 -14 -8 -21 -27 -23 -24 -3 -28 0 -28
23 0 23 4 26 28 23 19 -2 27 -9 27 -23z"/>
<path d="M1940 110 l0 -80 45 0 c25 0 45 5 45 10 0 6 -13 10 -30 10 l-30 0 0
70 c0 56 -3 70 -15 70 -12 0 -15 -16 -15 -80z"/>
<path d="M973 152 c-33 -21 -35 -97 -3 -117 20 -13 71 -8 88 8 22 22 8 33 -22
17 -28 -15 -56 -8 -56 15 0 11 12 15 51 15 48 0 50 1 44 23 -4 12 -14 28 -23
35 -18 13 -60 16 -79 4z m51 -18 c28 -11 18 -34 -14 -34 -30 0 -43 23 -17 33
6 3 13 6 14 6 1 1 8 -2 17 -5z"/>
<path d="M1135 137 c-8 -12 -15 -31 -15 -43 0 -29 30 -65 55 -65 11 1 35 1 53
1 l32 1 0 63 0 62 -55 2 c-46 1 -57 -2 -70 -21z m79 -13 c19 -18 21 -45 4 -62
-20 -20 -48 -14 -60 13 -9 21 -8 28 7 45 22 24 29 25 49 4z"/>
<path d="M1330 145 c-19 -23 -8 -47 27 -59 39 -13 47 -30 16 -34 -13 -2 -23 1
-23 7 0 6 -7 11 -15 11 -26 0 -16 -29 13 -37 35 -9 54 -5 69 14 17 22 6 41
-33 53 -37 12 -47 40 -14 40 11 0 20 -4 20 -10 0 -5 7 -10 15 -10 18 0 19 12
3 28 -17 17 -63 15 -78 -3z"/>
<path d="M1495 140 c-21 -23 -22 -77 -2 -97 20 -20 74 -19 97 2 11 10 20 31
20 47 0 59 -76 91 -115 48z m66 -10 c22 -13 25 -52 4 -70 -36 -30 -77 19 -49
59 17 24 19 25 45 11z"/>
<path d="M1670 94 c0 -50 3 -64 15 -64 11 0 15 12 15 49 0 36 4 51 16 55 27
10 44 -13 44 -60 0 -32 4 -44 15 -44 20 0 21 102 2 118 -7 6 -34 11 -60 10
l-47 -1 0 -63z"/>
<path d="M2080 95 c0 -51 3 -65 15 -65 12 0 15 14 15 65 0 51 -3 65 -15 65
-12 0 -15 -14 -15 -65z"/>
<path d="M2184 98 c20 -52 28 -63 46 -63 19 0 27 11 47 63 20 56 21 63 7 60
-10 -2 -24 -23 -34 -53 l-18 -50 -11 28 c-6 15 -14 39 -17 52 -4 15 -13 25
-25 25 -17 0 -17 -4 5 -62z"/>
<path d="M2356 138 c-21 -30 -20 -71 2 -91 22 -19 40 -23 73 -14 33 9 47 37
19 37 -11 0 -20 -4 -20 -10 0 -14 -33 -13 -48 2 -22 22 -13 28 38 28 42 0 50
3 50 18 0 49 -85 71 -114 30z m72 -10 c20 -20 14 -28 -23 -28 -19 0 -35 4 -35
8 0 12 22 32 35 32 6 0 16 -5 23 -12z"/>
<path d="M2790 106 c0 -31 5 -58 13 -64 7 -6 36 -10 65 -10 l52 1 0 64 c0 49
-3 63 -15 63 -11 0 -15 -11 -15 -36 0 -45 -15 -74 -39 -74 -23 0 -31 19 -31
71 0 28 -4 39 -15 39 -11 0 -15 -13 -15 -54z"/>
<path d="M2990 140 c-33 -33 -21 -93 23 -109 26 -10 73 5 81 25 7 17 -17 19
-43 2 -39 -24 -67 27 -37 68 13 16 18 17 35 7 12 -7 28 -13 37 -13 16 0 15 2
-1 20 -10 11 -31 20 -47 20 -15 0 -37 -9 -48 -20z"/>
<path d="M3166 144 c-24 -23 -24 -79 -2 -102 18 -19 74 -18 94 1 22 22 8 33
-22 17 -34 -18 -56 -7 -56 28 0 37 24 60 45 42 8 -6 22 -10 31 -8 17 3 17 4 0
21 -22 21 -69 22 -90 1z"/>
<path d="M3337 142 c-23 -25 -21 -75 3 -97 22 -20 74 -23 96 -4 31 26 2 41
-35 17 -15 -9 -23 -9 -35 1 -24 20 -10 31 40 31 37 0 44 3 44 19 0 47 -80 70
-113 33z m71 -14 c19 -19 14 -28 -18 -28 -18 0 -30 5 -30 13 0 28 27 36 48 15z"/>
<path d="M3517 142 c-20 -22 -22 -71 -4 -96 16 -22 73 -24 95 -3 22 22 8 33
-22 17 -28 -15 -56 -8 -56 15 0 11 12 15 50 15 56 0 65 15 30 50 -25 25 -72
26 -93 2z m72 -15 c14 -18 4 -27 -31 -27 -43 0 -35 36 8 39 6 1 17 -5 23 -12z"/>
<path d="M115 109 c-16 -25 20 -29 236 -27 191 3 224 5 224 18 0 13 -33 15
-227 18 -157 2 -229 -1 -233 -9z"/>
<path d="M4005 109 c-16 -25 20 -29 236 -27 191 3 224 5 224 18 0 13 -33 15
-227 18 -157 2 -229 -1 -233 -9z"/>
<path d="M1850 45 c0 -10 7 -15 18 -13 21 4 19 22 -2 26 -10 2 -16 -3 -16 -13z"/>
<path d="M2520 46 c0 -10 9 -16 21 -16 24 0 21 23 -4 28 -10 2 -17 -3 -17 -12z"/>
</g>
</svg>
