<svg width="184" height="71" viewBox="0 0 184 71" fill="none" xmlns="http://www.w3.org/2000/svg">
<path d="M46.9652 35.4274C46.9652 35.4932 46.9652 35.5722 46.9652 35.638C46.9652 39.5881 45.7228 43.2485 43.604 46.2505L51.1897 53.8873C53.413 51.1223 55.1525 47.9359 56.2511 44.4599C56.8396 42.5901 57.2582 40.6414 57.4543 38.6269C57.559 37.6394 57.6113 36.6519 57.6113 35.638C57.6113 19.6139 44.7157 6.63135 28.7989 6.63135C27.7919 6.63135 26.811 6.68402 25.8301 6.78935L41.5768 22.6423C41.5768 22.6423 41.6684 22.7345 41.7076 22.774C44.8334 25.9604 46.8083 30.2791 46.9522 35.0718" fill="#141414"/>
<path d="M16.95 49.503C16.2699 48.9105 15.629 48.2653 15.0405 47.5806C12.4117 44.5127 10.7768 40.5495 10.6461 36.2044C10.6461 36.0201 10.6461 35.8357 10.6461 35.6514C10.6461 35.5724 10.6461 35.4802 10.6461 35.4012C10.6984 31.4512 11.9932 27.7908 14.1642 24.8282L6.57858 17.1914C4.26365 20.0091 2.47187 23.2745 1.34711 26.8427C0.758564 28.6861 0.353125 30.6085 0.156944 32.5967C0.0523148 33.5974 0 34.6112 0 35.6514C0 51.6755 12.8956 64.6581 28.8124 64.6581C29.8325 64.6581 30.8526 64.6054 31.8466 64.5001L16.9631 49.5161L16.95 49.503Z" fill="#141414"/>
<path d="M38.0334 26.1317L29.3361 17.3625C29.3361 17.3625 29.3492 17.3625 29.3623 17.3625L20.0633 8.00087C20.0633 8.00087 14.2956 2.20743 13.0793 0.98291C9.87502 2.4576 6.91924 4.37997 4.27734 6.64468L18.2715 20.7333L21.842 24.3278L39.9168 42.5245L40.3745 42.0636C41.4208 40.1544 42.0224 37.9687 42.0224 35.6382C42.0224 31.912 40.4922 28.5412 38.0465 26.1317H38.0334Z" fill="#141414"/>
<path d="M39.7194 50.3719L36.2012 46.7247L18.3749 28.2778L17.9172 28.7255C16.8447 30.6215 16.217 32.7941 16.1908 35.1378C16.1385 38.864 17.6164 42.2479 20.0359 44.697L28.6156 53.5846C28.6156 53.5846 28.6025 53.5846 28.5894 53.5846L37.7576 63.0779C37.7576 63.0779 43.3683 68.8714 44.6239 70.1617C47.8151 68.687 50.7578 66.7778 53.3866 64.5L39.7194 50.3587V50.3719Z" fill="#141414"/>
<path d="M84.7594 40.6716L80.8265 28.2696H78.8983V40.6716H73.7871V12.6938H84.0249C87.4068 12.6938 89.0289 14.2807 89.0289 17.6855V22.7541C89.0289 25.5273 88.2026 26.7906 85.7694 27.5455L90.1002 40.6716H84.79H84.7594ZM83.933 18.995C83.933 17.2541 83.3362 16.6995 81.5764 16.6995H78.8983V24.1561H81.5764C83.3515 24.1561 83.933 23.5245 83.933 21.5062V19.0104V18.995Z" fill="#141414"/>
<path d="M106.169 39.408C104.516 40.9487 102.266 41.2722 100.139 41.2722C98.0121 41.2722 96.0074 40.9949 94.3547 39.6545C93.5283 38.9767 93.1304 38.3142 92.9774 37.9136C92.503 36.9276 92.3806 35.7259 92.3806 34.7091V19.0101C92.3806 18.4093 92.2582 15.6054 94.1098 13.9415C95.1351 13.0325 97.0633 12.1235 100.17 12.1235C104.179 12.1235 106.306 13.7874 107.133 15.4205C107.561 16.3294 107.76 17.2076 107.76 19.1488V34.7245C107.76 36.5117 107.485 38.1293 106.138 39.4389L106.169 39.408ZM102.634 19.4723C102.634 19.3183 102.756 18.0395 102.312 17.2076C102.083 16.6992 101.486 15.9751 100.185 15.9751C99.9097 15.9751 99.1598 16.0213 98.5324 16.4835C97.3847 17.2692 97.553 18.5017 97.553 19.6572V33.8002C97.553 34.6321 97.5071 35.6643 98.0274 36.373C98.6242 37.205 99.8791 37.2049 100.109 37.2049C100.338 37.2049 101.088 37.1587 101.715 36.7274C102.664 36.0495 102.618 34.9402 102.618 33.908V19.4415L102.634 19.4723Z" fill="#141414"/>
<path d="M126.062 37.4671C124.73 41.3495 119.573 41.2725 118.976 41.2725C117.798 41.2725 116.696 41.0722 116.344 40.9952C114.294 40.5946 112.488 39.6856 111.662 37.6674C111.264 36.6352 111.264 35.7724 111.264 34.7402V19.5188C111.264 19.0412 111.31 18.5328 111.34 18.0552C111.417 16.2681 111.891 14.8815 113.314 13.7415C114.462 12.8325 115.992 12.1084 119.068 12.1084C120.843 12.1084 122.726 12.3395 124.271 13.3717C125.021 13.8801 125.649 14.6042 126.001 15.4362C126.429 16.3451 126.475 16.8997 126.475 18.6098V22.8928H121.44V19.3648C121.44 17.2233 121.088 16.0678 118.808 16.0678C116.834 16.0678 116.451 17.3003 116.451 19.1183V34.0931C116.451 35.9111 116.849 37.2668 118.976 37.2668C121.257 37.2668 121.456 35.9573 121.456 33.8158V30.1646H126.49V34.124C126.49 35.2332 126.444 36.4195 126.092 37.4517L126.062 37.4671Z" fill="#141414"/>
<path d="M140.157 40.6716L134.725 26.9909V40.6716H129.521V12.6938H134.725V23.5861L140.28 12.6938H145.559L139.224 24.7878L145.712 40.687H140.157V40.6716Z" fill="#141414"/>
<path d="M157.679 32.3831V40.6716H152.446V32.0287L146.891 12.6938H152.277L155.108 26.806L157.832 12.6938H163.219L157.664 32.3985L157.679 32.3831Z" fill="#141414"/>
<path d="M166.034 23.3088H164.229L166.983 17.9628H164.55V12.6938H169.202V17.9628L166.05 23.3088H166.034Z" fill="#141414"/>
<path d="M181.583 39.2386C180.71 40.3016 179.303 41.0565 176.426 41.0565C174.176 41.0565 171.697 40.6251 170.718 38.2372C170.289 37.205 170.289 35.9724 170.289 35.6181V33.5229H174.62V35.1097C174.62 35.7876 174.666 36.0187 174.742 36.373C174.819 36.8506 175.217 37.6825 176.441 37.6825C176.594 37.6825 177.114 37.6825 177.497 37.4052C177.895 37.1741 178.277 36.5271 178.277 35.464C178.277 34.0004 178.048 33.6769 176.9 32.845L172.967 30.0256C171.07 28.6699 170.565 27.4836 170.565 25.1572C170.61 21.1208 173.044 19.9653 176.67 19.9653C179.624 19.9653 181.231 20.9976 181.873 22.153C182.348 22.9387 182.424 23.7707 182.424 24.618V26.8827H178.369V25.4192C178.369 25.0956 178.446 23.2006 176.64 23.2006C176.441 23.2006 176.165 23.2007 175.768 23.4009C175.171 23.7553 175.018 24.3869 175.018 25.0186C175.018 26.2049 175.446 26.6054 176.349 27.2371L180.68 30.2875C181.078 30.5648 181.552 31.0733 181.904 31.52C182.378 32.1979 182.654 33.1069 182.654 34.817C182.654 36.3576 182.654 37.9445 181.598 39.254L181.583 39.2386Z" fill="#141414"/>
<path d="M79.311 48.4824L78.0102 52.9194H77.1839L76.2504 49.5609L75.271 52.9194H74.4599L73.2051 48.4824H73.9702L74.8884 52.1029L75.8831 48.4824H76.6942L77.6124 52.0721L78.5305 48.4824H79.311Z" fill="#141414"/>
<path d="M81.162 52.673C80.8254 52.4727 80.5499 52.2108 80.351 51.8565C80.152 51.5022 80.0449 51.117 80.0449 50.6856C80.0449 50.2542 80.152 49.8691 80.351 49.5147C80.5499 49.1758 80.8254 48.8985 81.162 48.7136C81.514 48.5133 81.8813 48.4209 82.2945 48.4209C82.7077 48.4209 83.0902 48.5133 83.4269 48.7136C83.7789 48.9139 84.039 49.1758 84.238 49.5147C84.4369 49.8537 84.5287 50.2542 84.5287 50.6856C84.5287 51.117 84.4216 51.5176 84.238 51.8565C84.039 52.2108 83.7636 52.4727 83.4269 52.673C83.0749 52.8733 82.7077 52.9658 82.2945 52.9658C81.8813 52.9658 81.514 52.8733 81.162 52.673ZM83.0749 52.1184C83.3045 51.9797 83.4881 51.7949 83.6105 51.5484C83.733 51.3019 83.8095 51.0092 83.8095 50.6856C83.8095 50.3621 83.7483 50.0694 83.6105 49.8229C83.4728 49.5764 83.3045 49.3915 83.0749 49.2528C82.8454 49.1142 82.5852 49.0526 82.2945 49.0526C82.0037 49.0526 81.7436 49.1142 81.514 49.2528C81.2845 49.3915 81.1008 49.5764 80.9784 49.8229C80.856 50.0694 80.7795 50.3621 80.7795 50.6856C80.7795 51.0092 80.8407 51.3019 80.9784 51.5484C81.1161 51.7949 81.2845 51.9952 81.514 52.1184C81.7436 52.2571 82.0037 52.3187 82.2945 52.3187C82.5852 52.3187 82.8454 52.2571 83.0749 52.1184Z" fill="#141414"/>
<path d="M87.9266 52.9194L86.9166 51.1477H86.3657V52.9194H85.6465V48.4824H87.1768C87.5135 48.4824 87.8042 48.544 88.0338 48.6673C88.2633 48.7905 88.4469 48.9446 88.5541 49.1449C88.6612 49.3452 88.7224 49.5609 88.7224 49.8228C88.7224 50.1155 88.6459 50.3774 88.4776 50.6085C88.3092 50.8396 88.0491 51.009 87.7124 51.0861L88.7989 52.9194H87.9419H87.9266ZM86.3657 50.5623H87.1615C87.4369 50.5623 87.6359 50.5006 87.7736 50.362C87.9113 50.2233 87.9726 50.0385 87.9726 49.8074C87.9726 49.5763 87.9113 49.3914 87.7736 49.2681C87.6359 49.1449 87.4369 49.0679 87.1615 49.0679H86.3657V50.5623Z" fill="#141414"/>
<path d="M90.758 52.334H92.2424V52.9194H90.0234V48.4824H90.7427V52.334H90.758Z" fill="#141414"/>
<path d="M95.8987 48.7443C96.2507 48.9292 96.5262 49.1911 96.7098 49.53C96.8934 49.869 97.0006 50.2695 97.0006 50.7163C97.0006 51.1631 96.9087 51.5637 96.7098 51.8872C96.5109 52.2261 96.2507 52.4726 95.8987 52.6575C95.5468 52.827 95.1336 52.9194 94.6592 52.9194H93.2207V48.4824H94.6592C95.1336 48.4824 95.5468 48.5749 95.8987 48.7597V48.7443ZM95.8528 51.9026C96.1283 51.6253 96.266 51.2247 96.266 50.7163C96.266 50.2079 96.1283 49.792 95.8528 49.5146C95.5774 49.2373 95.1795 49.0833 94.6592 49.0833H93.9399V52.334H94.6592C95.1795 52.334 95.5774 52.1953 95.8528 51.918V51.9026Z" fill="#141414"/>
<path d="M103.842 48.4824L102.541 52.9194H101.715L100.782 49.5609L99.8022 52.9194H98.9912L97.7363 48.4824H98.5015L99.4197 52.1029L100.414 48.4824H101.225L102.144 52.0721L103.062 48.4824H103.842Z" fill="#141414"/>
<path d="M105.54 48.4824V52.9194H104.82V48.4824H105.54Z" fill="#141414"/>
<path d="M109.549 48.7443C109.901 48.9292 110.177 49.1911 110.36 49.53C110.544 49.869 110.651 50.2695 110.651 50.7163C110.651 51.1631 110.559 51.5637 110.36 51.8872C110.161 52.2261 109.901 52.4726 109.549 52.6575C109.197 52.827 108.784 52.9194 108.31 52.9194H106.871V48.4824H108.31C108.784 48.4824 109.197 48.5749 109.549 48.7597V48.7443ZM109.503 51.9026C109.779 51.6253 109.916 51.2247 109.916 50.7163C109.916 50.2079 109.779 49.792 109.503 49.5146C109.228 49.2373 108.83 49.0833 108.31 49.0833H107.59V52.334H108.31C108.83 52.334 109.228 52.1953 109.503 51.918V51.9026Z" fill="#141414"/>
<path d="M112.473 49.0679V50.3774H114.003V50.9782H112.473V52.334H114.187V52.9348H111.754V48.4824H114.187V49.0833H112.473V49.0679Z" fill="#141414"/>
<path d="M73.6342 57.1871C73.8331 56.8482 74.1086 56.5709 74.4452 56.386C74.7972 56.1857 75.1645 56.0933 75.5777 56.0933C76.0521 56.0933 76.4652 56.2165 76.8325 56.4476C77.1998 56.6787 77.4599 57.0022 77.6283 57.4336H76.756C76.6336 57.2025 76.4806 57.0176 76.2816 56.9098C76.0827 56.8019 75.8378 56.7403 75.5777 56.7403C75.2869 56.7403 75.0268 56.8019 74.7972 56.9406C74.5677 57.0793 74.384 57.2641 74.2616 57.5106C74.1392 57.7571 74.0627 58.0499 74.0627 58.3734C74.0627 58.6969 74.1239 58.9896 74.2616 59.2361C74.3993 59.4826 74.5677 59.6675 74.7972 59.8062C75.0268 59.9448 75.2869 60.0065 75.5777 60.0065C75.8378 60.0065 76.0827 59.9448 76.2816 59.837C76.4806 59.7291 76.6489 59.5443 76.756 59.3132H77.6283C77.4599 59.7445 77.1998 60.0681 76.8325 60.2992C76.4652 60.5303 76.0521 60.6381 75.5777 60.6381C75.1645 60.6381 74.7819 60.5457 74.4452 60.3454C74.1086 60.1451 73.8331 59.8832 73.6342 59.5443C73.4352 59.2053 73.3281 58.8048 73.3281 58.3734C73.3281 57.942 73.4352 57.5569 73.6342 57.2025V57.1871Z" fill="#141414"/>
<path d="M82.3713 56.1392V60.5762H81.652V58.635H79.5708V60.5762H78.8516V56.1392H79.5708V58.0495H81.652V56.1392H82.3713Z" fill="#141414"/>
<path d="M86.3662 59.6675H84.5146L84.1932 60.5764H83.4434L85.0196 56.124H85.8612L87.4375 60.5764H86.6723L86.3509 59.6675H86.3662ZM86.152 59.082L85.4328 57.0176L84.7135 59.082H86.152Z" fill="#141414"/>
<path d="M89.2267 56.1392V58.9739C89.2267 59.3129 89.3186 59.5594 89.4869 59.7288C89.6705 59.8983 89.9001 59.9907 90.2214 59.9907C90.5428 59.9907 90.7876 59.8983 90.956 59.7288C91.1243 59.5594 91.2161 59.3129 91.2161 58.9739V56.1392H91.9354V58.9585C91.9354 59.3129 91.8589 59.621 91.7058 59.8829C91.5528 60.1448 91.3386 60.3143 91.0784 60.4375C90.8183 60.5608 90.5275 60.6224 90.2061 60.6224C89.8848 60.6224 89.594 60.5608 89.3339 60.4375C89.0737 60.3143 88.8748 60.1294 88.7217 59.8829C88.5687 59.6364 88.4922 59.3283 88.4922 58.9585V56.1392H89.2114H89.2267Z" fill="#141414"/>
<path d="M95.8538 56.1392V56.74H93.9868V58.0495H95.4406V58.6504H93.9868V60.5916H93.2676V56.1546H95.8691L95.8538 56.1392Z" fill="#141414"/>
<path d="M99.51 56.1392V56.74H97.6431V58.0495H99.0969V58.6504H97.6431V60.5916H96.9238V56.1546H99.5253L99.51 56.1392Z" fill="#141414"/>
<path d="M101.286 56.7246V58.0341H102.816V58.635H101.286V59.9907H103V60.5916H100.566V56.1392H103V56.74H101.286V56.7246Z" fill="#141414"/>
<path d="M104.975 56.1392V58.9739C104.975 59.3129 105.067 59.5594 105.235 59.7288C105.419 59.8983 105.648 59.9907 105.969 59.9907C106.291 59.9907 106.536 59.8983 106.704 59.7288C106.872 59.5594 106.964 59.3129 106.964 58.9739V56.1392H107.683V58.9585C107.683 59.3129 107.607 59.621 107.454 59.8829C107.301 60.1448 107.087 60.3143 106.826 60.4375C106.566 60.5608 106.276 60.6224 105.954 60.6224C105.633 60.6224 105.342 60.5608 105.082 60.4375C104.822 60.3143 104.623 60.1294 104.47 59.8829C104.317 59.6364 104.24 59.3283 104.24 58.9585V56.1392H104.959H104.975Z" fill="#141414"/>
<path d="M111.309 60.5762L110.299 58.8044H109.749V60.5762H109.029V56.1392H110.56C110.896 56.1392 111.187 56.2008 111.417 56.324C111.646 56.4473 111.83 56.6013 111.937 56.8016C112.044 57.0019 112.105 57.2176 112.105 57.4795C112.105 57.7722 112.029 58.0341 111.86 58.2652C111.692 58.4963 111.432 58.6658 111.095 58.7428L112.182 60.5762H111.325H111.309ZM109.749 58.219H110.544C110.82 58.219 111.019 58.1574 111.156 58.0187C111.294 57.8801 111.355 57.6952 111.355 57.4641C111.355 57.233 111.294 57.0481 111.156 56.9249C111.019 56.8016 110.82 56.7246 110.544 56.7246H109.749V58.219Z" fill="#141414"/>
<path d="M114.141 56.7246V58.0341H115.671V58.635H114.141V59.9907H115.855V60.5916H113.422V56.1392H115.855V56.74H114.141V56.7246Z" fill="#141414"/>
<path d="M119.787 56.4167C120.139 56.6016 120.415 56.8635 120.598 57.2024C120.782 57.5414 120.889 57.9419 120.889 58.3887C120.889 58.8355 120.797 59.236 120.598 59.5596C120.4 59.8985 120.139 60.145 119.787 60.3299C119.435 60.4994 119.022 60.5918 118.548 60.5918H117.109V56.1548H118.548C119.022 56.1548 119.435 56.2472 119.787 56.4321V56.4167ZM119.742 59.5596C120.017 59.2823 120.155 58.8817 120.155 58.3733C120.155 57.8649 120.017 57.4489 119.742 57.1716C119.466 56.8943 119.068 56.7402 118.548 56.7402H117.829V59.9909H118.548C119.068 59.9909 119.466 59.8523 119.742 59.575V59.5596Z" fill="#141414"/>
<path d="M126.873 56.1392V56.74H125.694V60.5916H124.975V56.74H123.797V56.1392H126.873Z" fill="#141414"/>
<path d="M130.27 60.5762L129.26 58.8044H128.709V60.5762H127.99V56.1392H129.521C129.857 56.1392 130.148 56.2008 130.378 56.324C130.607 56.4473 130.791 56.6013 130.898 56.8016C131.005 57.0019 131.066 57.2176 131.066 57.4795C131.066 57.7722 130.99 58.0341 130.821 58.2652C130.653 58.4963 130.393 58.6658 130.056 58.7428L131.143 60.5762H130.286H130.27ZM128.709 58.219H129.505C129.781 58.219 129.98 58.1574 130.117 58.0187C130.255 57.8801 130.316 57.6952 130.316 57.4641C130.316 57.233 130.255 57.0481 130.117 56.9249C129.98 56.8016 129.781 56.7246 129.505 56.7246H128.709V58.219Z" fill="#141414"/>
<path d="M135.03 59.6675H133.179L132.857 60.5764H132.107L133.684 56.124H134.525L136.102 60.5764H135.336L135.015 59.6675H135.03ZM134.831 59.082L134.112 57.0176L133.393 59.082H134.831Z" fill="#141414"/>
<path d="M140.799 60.5764H140.08L137.907 57.2641V60.5764H137.188V56.124H137.907L140.08 59.4364V56.124H140.799V60.5764Z" fill="#141414"/>
<path d="M142.789 60.4687C142.544 60.3609 142.36 60.2222 142.222 60.0219C142.085 59.837 142.023 59.6059 142.023 59.344H142.804C142.819 59.5289 142.896 59.6984 143.033 59.8216C143.171 59.9449 143.355 60.0065 143.6 60.0065C143.844 60.0065 144.043 59.9449 144.181 59.8216C144.319 59.6984 144.395 59.5443 144.395 59.3594C144.395 59.2054 144.35 59.0821 144.273 58.9897C144.181 58.8973 144.074 58.8202 143.952 58.774C143.829 58.7278 143.646 58.6662 143.416 58.6045C143.125 58.5275 142.896 58.4505 142.712 58.3734C142.528 58.2964 142.375 58.1732 142.253 58.0037C142.131 57.8342 142.069 57.6185 142.069 57.3412C142.069 57.0793 142.131 56.8636 142.253 56.6633C142.375 56.4785 142.559 56.3244 142.789 56.2166C143.018 56.1087 143.278 56.0625 143.584 56.0625C144.013 56.0625 144.365 56.1703 144.64 56.386C144.916 56.6017 145.069 56.8944 145.099 57.2642H144.304C144.304 57.1101 144.212 56.9715 144.074 56.8482C143.936 56.7404 143.753 56.6788 143.523 56.6788C143.324 56.6788 143.141 56.725 143.018 56.8328C142.88 56.9407 142.819 57.0947 142.819 57.295C142.819 57.4337 142.865 57.5415 142.942 57.6339C143.018 57.7264 143.125 57.788 143.263 57.8342C143.401 57.8804 143.569 57.9421 143.783 58.0037C144.074 58.0807 144.319 58.1732 144.503 58.2502C144.686 58.3272 144.839 58.4505 144.977 58.6199C145.099 58.7894 145.176 59.0051 145.176 59.2978C145.176 59.5289 145.115 59.7292 144.992 59.9295C144.87 60.1298 144.701 60.2838 144.472 60.4071C144.242 60.5303 143.967 60.5919 143.661 60.5919C143.37 60.5919 143.095 60.5457 142.865 60.4379L142.789 60.4687Z" fill="#141414"/>
<path d="M149.261 58.0958C149.154 58.296 148.986 58.4655 148.756 58.5888C148.527 58.712 148.22 58.7736 147.869 58.7736H147.073V60.5762H146.354V56.1392H147.884C148.22 56.1392 148.511 56.2008 148.741 56.3086C148.97 56.4165 149.154 56.5859 149.261 56.7862C149.384 56.9865 149.429 57.2176 149.429 57.4641C149.429 57.6952 149.384 57.8955 149.276 58.0958H149.261ZM148.481 57.9879C148.618 57.8647 148.68 57.6798 148.68 57.4487C148.68 56.9711 148.404 56.7246 147.853 56.7246H147.057V58.1728H147.853C148.129 58.1728 148.328 58.1112 148.465 57.9879H148.481Z" fill="#141414"/>
<path d="M151.373 60.3298C151.036 60.1295 150.761 59.8676 150.562 59.5132C150.363 59.1589 150.256 58.7737 150.256 58.3424C150.256 57.911 150.363 57.5258 150.562 57.1715C150.761 56.8325 151.036 56.5552 151.373 56.3704C151.725 56.1701 152.092 56.0776 152.505 56.0776C152.919 56.0776 153.301 56.1701 153.638 56.3704C153.99 56.5706 154.25 56.8325 154.449 57.1715C154.648 57.5104 154.74 57.911 154.74 58.3424C154.74 58.7737 154.633 59.1743 154.449 59.5132C154.25 59.8676 153.975 60.1295 153.638 60.3298C153.286 60.53 152.919 60.6225 152.505 60.6225C152.092 60.6225 151.725 60.53 151.373 60.3298ZM153.286 59.7905C153.515 59.6519 153.699 59.467 153.821 59.2205C153.944 58.974 154.02 58.6813 154.02 58.3578C154.02 58.0342 153.959 57.7415 153.821 57.495C153.684 57.2485 153.515 57.0636 153.286 56.925C153.056 56.7863 152.796 56.7247 152.505 56.7247C152.215 56.7247 151.954 56.7863 151.725 56.925C151.495 57.0636 151.312 57.2485 151.189 57.495C151.067 57.7415 150.99 58.0342 150.99 58.3578C150.99 58.6813 151.052 58.974 151.189 59.2205C151.327 59.467 151.495 59.6673 151.725 59.7905C151.954 59.9292 152.215 59.9908 152.505 59.9908C152.796 59.9908 153.056 59.9292 153.286 59.7905Z" fill="#141414"/>
<path d="M158.138 60.5762L157.128 58.8044H156.577V60.5762H155.857V56.1392H157.388C157.724 56.1392 158.015 56.2008 158.245 56.324C158.474 56.4473 158.658 56.6013 158.765 56.8016C158.872 57.0019 158.933 57.2176 158.933 57.4795C158.933 57.7722 158.857 58.0341 158.688 58.2652C158.52 58.4963 158.26 58.6658 157.923 58.7428L159.01 60.5762H158.153H158.138ZM156.577 58.219H157.372C157.648 58.219 157.847 58.1574 157.985 58.0187C158.122 57.8801 158.183 57.6952 158.183 57.4641C158.183 57.233 158.122 57.0481 157.985 56.9249C157.847 56.8016 157.648 56.7246 157.372 56.7246H156.577V58.219Z" fill="#141414"/>
<path d="M163.095 56.1392V56.74H161.917V60.5916H161.198V56.74H160.02V56.1392H163.095Z" fill="#141414"/>
<path d="M166.86 59.6675H165.009L164.687 60.5764H163.938L165.514 56.124H166.355L167.932 60.5764H167.166L166.845 59.6675H166.86ZM166.661 59.082L165.942 57.0176L165.223 59.082H166.661Z" fill="#141414"/>
<path d="M171.849 56.1392V56.74H170.671V60.5916H169.952V56.74H168.773V56.1392H171.849Z" fill="#141414"/>
<path d="M173.684 56.1392V60.5762H172.965V56.1392H173.684Z" fill="#141414"/>
<path d="M175.889 60.3298C175.552 60.1295 175.276 59.8676 175.078 59.5132C174.879 59.1589 174.771 58.7737 174.771 58.3424C174.771 57.911 174.879 57.5258 175.078 57.1715C175.276 56.8325 175.552 56.5552 175.889 56.3704C176.241 56.1701 176.608 56.0776 177.021 56.0776C177.434 56.0776 177.817 56.1701 178.153 56.3704C178.505 56.5706 178.766 56.8325 178.965 57.1715C179.163 57.5104 179.255 57.911 179.255 58.3424C179.255 58.7737 179.148 59.1743 178.965 59.5132C178.766 59.8676 178.49 60.1295 178.153 60.3298C177.801 60.53 177.434 60.6225 177.021 60.6225C176.608 60.6225 176.241 60.53 175.889 60.3298ZM177.801 59.7905C178.031 59.6519 178.215 59.467 178.337 59.2205C178.46 58.974 178.536 58.6813 178.536 58.3578C178.536 58.0342 178.475 57.7415 178.337 57.495C178.199 57.2485 178.031 57.0636 177.801 56.925C177.572 56.7863 177.312 56.7247 177.021 56.7247C176.73 56.7247 176.47 56.7863 176.241 56.925C176.011 57.0636 175.827 57.2485 175.705 57.495C175.583 57.7415 175.506 58.0342 175.506 58.3578C175.506 58.6813 175.567 58.974 175.705 59.2205C175.843 59.467 176.011 59.6673 176.241 59.7905C176.47 59.9292 176.73 59.9908 177.021 59.9908C177.312 59.9908 177.572 59.9292 177.801 59.7905Z" fill="#141414"/>
<path d="M184 60.5764H183.281L181.108 57.2641V60.5764H180.389V56.124H181.108L183.281 59.4364V56.124H184V60.5764Z" fill="#141414"/>
<path d="M183.999 52.3188H119.236V52.7194H183.999V52.3188Z" fill="#141414"/>
</svg>
